<svg width="255" height="12" viewBox="0 0 255 12" fill="none" xmlns="http://www.w3.org/2000/svg">
<line y1="5.5" x2="104" y2="5.5" stroke="#2FA087"/>
<path d="M127.116 6.36364C127.116 7.14015 126.974 7.80777 126.69 8.36648C126.406 8.92282 126.017 9.35133 125.522 9.65199C125.03 9.95028 124.47 10.0994 123.842 10.0994C123.213 10.0994 122.65 9.95028 122.156 9.65199C121.663 9.35133 121.275 8.92164 120.991 8.36293C120.707 7.80421 120.565 7.13778 120.565 6.36364C120.565 5.58712 120.707 4.92069 120.991 4.36435C121.275 3.80563 121.663 3.37713 122.156 3.07884C122.65 2.77817 123.213 2.62784 123.842 2.62784C124.47 2.62784 125.03 2.77817 125.522 3.07884C126.017 3.37713 126.406 3.80563 126.69 4.36435C126.974 4.92069 127.116 5.58712 127.116 6.36364ZM126.03 6.36364C126.03 5.77178 125.934 5.27344 125.742 4.86861C125.553 4.46141 125.292 4.15365 124.961 3.94531C124.632 3.73461 124.259 3.62926 123.842 3.62926C123.423 3.62926 123.049 3.73461 122.72 3.94531C122.391 4.15365 122.131 4.46141 121.939 4.86861C121.75 5.27344 121.655 5.77178 121.655 6.36364C121.655 6.95549 121.75 7.45502 121.939 7.86222C122.131 8.26705 122.391 8.57481 122.72 8.78551C123.049 8.99384 123.423 9.09801 123.842 9.09801C124.259 9.09801 124.632 8.99384 124.961 8.78551C125.292 8.57481 125.553 8.26705 125.742 7.86222C125.934 7.45502 126.03 6.95549 126.03 6.36364ZM128.485 10V2.72727H131.077C131.64 2.72727 132.108 2.82434 132.48 3.01847C132.854 3.21259 133.133 3.4813 133.318 3.82457C133.502 4.16548 133.595 4.55966 133.595 5.0071C133.595 5.45218 133.501 5.84399 133.314 6.18253C133.129 6.5187 132.85 6.7803 132.476 6.96733C132.104 7.15436 131.637 7.24787 131.073 7.24787H129.11V6.30327H130.974C131.329 6.30327 131.618 6.25237 131.84 6.15057C132.065 6.04877 132.23 5.9008 132.334 5.70668C132.438 5.51255 132.49 5.27936 132.49 5.0071C132.49 4.73248 132.437 4.49455 132.33 4.29332C132.226 4.09209 132.062 3.93821 131.837 3.83168C131.614 3.72277 131.322 3.66832 130.96 3.66832H129.582V10H128.485ZM132.075 6.71875L133.872 10H132.622L130.86 6.71875H132.075Z" fill="#2FA087"/>
<line x1="151" y1="5.5" x2="255" y2="5.5" stroke="#2FA087"/>
</svg>
