<svg width="147" height="59" viewBox="0 0 147 59" fill="none" xmlns="http://www.w3.org/2000/svg">
<path fill-rule="evenodd" clip-rule="evenodd" d="M50.618 1.04536C50.1328 2.32531 49.563 2.40315 47.3781 1.48764C45.0918 0.529665 41.13 0.636696 38.9596 1.71541C36.2561 3.05861 35.4022 4.50928 35.4022 7.7609C35.4022 10.1912 35.55 10.6538 36.7253 11.9104C37.7353 12.9895 37.8976 13.3783 37.412 13.5525C35.0935 14.384 33.9697 17.7382 35.3705 19.6471C35.9315 20.4109 35.8957 20.6179 35.0498 21.5255C33.6253 23.054 33.7417 25.8195 35.2867 27.1521C38.0056 29.498 44.6618 29.494 49.2856 27.1446C55.45 24.0119 56.4308 17.3123 50.9417 15.8298C49.5899 15.4649 48.183 15.5335 44.6521 16.1368C40.9015 16.7772 39.9824 16.8126 39.4126 16.338C38.9336 15.9395 38.8445 15.5419 39.1224 15.0439C39.447 14.4623 40.1204 14.3526 42.6445 14.4698C46.4612 14.6463 49.1978 13.5216 50.6382 11.185C51.672 9.50746 51.8912 6.36375 51.0802 4.84452C50.6343 4.00862 50.7057 3.92016 51.8273 3.92016C53.3736 3.92016 55.0283 2.79988 55.0283 1.75389C55.0283 1.2205 54.4753 0.798128 53.3233 0.451825C51.0731 -0.223975 51.1018 -0.230168 50.618 1.04536ZM7.95742 2.44871C7.1168 3.34255 6.26252 4.48672 6.05876 4.9918C5.7862 5.66716 5.68079 5.29521 5.66006 3.58846L5.63228 1.2665H0.339844V21.169H5.63228V15.6693C5.63228 12.6445 5.84397 9.60918 6.10286 8.92454C7.14591 6.1634 9.29729 5.02144 11.3657 6.13155C12.0802 6.51501 12.3325 6.266 13.2666 4.25187C14.2334 2.16786 14.2726 1.8733 13.6525 1.37707C13.2723 1.07322 12.179 0.824222 11.2233 0.824222C9.79257 0.824222 9.21481 1.1117 7.95742 2.44871ZM19.5209 1.64907C15.5931 3.43853 13.3575 7.65077 13.6433 12.7233C13.9542 18.2349 17.0979 21.2092 22.9659 21.5432C26.7297 21.7572 29.1029 20.9085 31.4342 18.514C33.3452 16.5512 33.4555 16.9209 30.2399 14.5118L29.0464 13.618L28.3677 14.9342C27.9946 15.6582 27.247 16.5609 26.7063 16.9404C25.3065 17.924 22.3149 17.8245 20.9517 16.7489C19.8195 15.8559 18.6614 13.3787 19.2206 13.047C19.3878 12.9475 21.0134 12.7281 22.8327 12.5596C27.5222 12.1253 29.4059 11.5495 30.841 10.1103C33.3792 7.56497 32.0283 3.002 28.2702 1.42749C26.2048 0.561951 21.6542 0.677387 19.5209 1.64907ZM60.7208 1.85296C55.1271 4.81357 53.2792 12.5676 56.8908 17.9249C59.3289 21.5418 65.7887 22.7594 70.3764 20.4667C72.3976 19.4569 74.4339 17.6073 74.4339 16.7812C74.4339 16.6228 73.607 15.8559 72.5957 15.0766L70.7579 13.66L69.9874 14.9302C68.8786 16.759 67.4254 17.6308 65.4862 17.6308C63.3317 17.6308 62.2653 17.0518 61.4277 15.4282C60.2374 13.1195 60.4509 12.8971 64.1798 12.5658C68.9439 12.1417 70.8465 11.5663 72.2984 10.1103C73.7649 8.63971 73.9968 6.06565 72.8612 3.86355C71.3215 0.878181 64.65 -0.226629 60.7208 1.85296ZM86.1024 1.64818C85.3645 2.09931 84.2231 3.10903 83.5664 3.89186L82.3726 5.31467V1.2665H77.0801V21.169H82.3726V15.5591C82.3726 10.8732 82.5163 9.6512 83.2454 8.14126C84.8049 4.90998 88.1444 3.81048 89.838 5.97012C90.6755 7.03778 90.7522 7.72331 90.7522 14.1523V21.169L96.2652 21.1703L96.1254 13.3234C95.9697 4.59729 95.6006 3.11787 93.2132 1.65836C91.4169 0.559741 87.8904 0.554874 86.1024 1.64818ZM45.0455 4.83701C46.6381 6.09307 46.6769 8.79716 45.1249 10.3531C44.5295 10.9502 43.7268 11.4389 43.3409 11.4389C42.0385 11.4389 40.4741 9.38716 40.4741 7.67952C40.4741 6.58312 40.8093 5.75518 41.5569 5.00596C42.8773 3.68134 43.5398 3.64905 45.0455 4.83701ZM26.6918 5.36508C27.5266 6.0201 27.3515 7.81132 26.4029 8.32038C25.9411 8.5685 24.1549 8.90242 22.4335 9.06297C18.8272 9.3991 18.4717 8.9608 20.4436 6.61098C22.0962 4.64152 25.0251 4.05727 26.6918 5.36508ZM68.1491 5.36508C68.8654 5.92722 68.8579 7.66095 68.1368 8.26156C67.3685 8.90065 60.7618 9.48313 60.7618 8.91171C60.7618 8.67067 61.2152 7.79761 61.7696 6.971C63.2567 4.75297 66.37 3.96926 68.1491 5.36508ZM48.1729 20.4366C49.432 21.3601 48.7594 23.1146 46.7862 24.0535C44.8157 24.9912 40.8587 25.1358 39.8624 24.3065C39.0214 23.6064 38.9129 21.6511 39.7023 21.4273C41.1379 21.0204 46.0634 19.9359 46.6747 19.8917C47.0526 19.8643 47.727 20.1097 48.1729 20.4366Z" fill="white"/>
<path fill-rule="evenodd" clip-rule="evenodd" d="M58.8937 28.6878H64.6271V24.265H58.8937V28.6878ZM68.1554 51.2439H71.0693C73.5453 51.2439 73.9431 51.1387 73.7156 50.5443C73.5683 50.1595 73.4478 44.1887 73.4478 37.2759V24.7073H68.1554V51.2439ZM77.2893 24.9828C77.1173 25.1557 76.9761 31.1349 76.9761 38.2706V51.2439H82.7228L82.4891 24.9284L80.0457 24.7984C78.7019 24.7272 77.4617 24.8099 77.2893 24.9828ZM123.285 30.5759C123.285 31.9978 122.077 32.3901 120.068 31.621C117.449 30.6179 113.523 30.686 111.401 31.7713C107.249 33.8956 106.183 38.5767 109.068 42.0149C110.105 43.2511 110.143 43.4192 109.465 43.7991C107.022 45.1701 106.17 48.1723 107.802 49.6539C108.62 50.3956 108.614 50.4359 107.582 51.4713C106.874 52.1811 106.526 53.036 106.526 54.0626C106.526 56.3319 106.888 56.9325 108.895 57.9891C112.675 59.978 120.006 58.9205 124.103 55.7945C126.758 53.7698 127.636 49.7588 125.907 47.5549C124.443 45.688 122.23 45.3457 117.134 46.1967C112.249 47.0131 111.246 46.8711 111.456 45.3948C111.59 44.455 111.77 44.4121 115.126 44.5204C118.126 44.6168 118.912 44.4833 120.377 43.6266C122.896 42.1538 123.941 40.5222 123.944 38.057C123.945 36.9177 123.784 35.5373 123.586 34.9902C123.265 34.1043 123.366 33.9951 124.501 33.9951C125.656 33.9951 127.695 32.4878 127.695 31.6338C127.695 31.303 126.188 30.6493 124.368 30.1915C123.582 29.9934 123.285 30.0991 123.285 30.5759ZM91.0386 31.5095C89.2294 32.1574 87.3096 33.4445 86.0249 34.8699L85.1507 35.8403L86.6864 37.1171C87.5315 37.8195 88.3743 38.3993 88.5595 38.4059C88.7448 38.4126 89.4394 37.8124 90.1031 37.0725C92.6179 34.2689 96.7302 34.0345 97.6369 36.6435C98.1362 38.0791 97.9421 38.4179 96.6212 38.4179C94.8011 38.4179 90.4061 39.7978 88.7567 40.8876C85.6434 42.9441 84.5549 46.1962 86.0249 49.0471C87.0349 51.0055 88.9758 51.818 92.1041 51.5911C94.5051 51.4169 94.8893 51.2413 96.3844 49.6336L98.0272 47.8676L98.5309 49.2652C99.1342 50.9383 100.586 51.6862 103.23 51.6862C105.005 51.6862 105.21 51.5739 105.451 50.4699C105.598 49.8008 105.789 49.0171 105.877 48.7278C105.966 48.4319 105.516 48.1418 104.847 48.0644L103.659 47.9268L103.438 41.5138C103.236 35.6448 103.128 34.9748 102.16 33.6134C101.578 32.7952 100.443 31.8501 99.6379 31.5126C97.8182 30.7501 93.1626 30.7483 91.0386 31.5095ZM133.649 31.7488C129.655 33.628 127.504 37.2016 127.506 41.9561C127.508 46.3218 129.457 49.4797 133.09 51.0016C135.118 51.8516 140.018 51.8936 141.965 51.0781C143.749 50.3306 146.66 47.8229 146.66 47.0335C146.66 46.7146 145.884 45.8366 144.935 45.0834L143.211 43.7137L142.3 45.1914C140.076 48.8004 134.837 48.5465 133.402 44.7597C133.174 44.1591 132.988 43.5213 132.988 43.3426C132.988 43.1635 134.949 42.7991 137.346 42.5324C139.743 42.2657 142.431 41.7014 143.319 41.2785C147.359 39.3564 147.012 34.0172 142.698 31.7183C140.617 30.6095 136.037 30.625 133.649 31.7488ZM44.56 51.2599L49.7977 51.0228L51.4913 46.6C52.4228 44.1675 53.9501 40.187 54.8855 37.7545C57.5719 30.7656 57.5758 31.3401 54.8436 31.3485L52.4986 31.3556L51.3312 34.9973C49.2451 41.5067 48.0949 44.5987 47.7575 44.6045C47.5753 44.6071 47.4267 44.416 47.4267 44.1794C47.4267 43.9428 46.4017 40.9574 45.1488 37.5453L42.8704 31.3414H36.9455L44.56 51.2599ZM58.8937 51.2439H64.6271V31.3414H58.8937V51.2439ZM117.54 34.8686C118.838 36.1698 119.103 37.8389 118.285 39.5585C117.08 42.0919 114.078 41.995 113.091 39.3909C111.758 35.8766 115.129 32.4507 117.54 34.8686ZM140.677 35.7324C141.524 36.67 141.304 38.1777 140.264 38.5784C139.917 38.7116 138.15 38.9552 136.337 39.1202C133.099 39.4143 133.044 39.4024 133.292 38.4528C133.431 37.9208 134.129 36.8995 134.844 36.1826C136.452 34.5696 139.421 34.3405 140.677 35.7324ZM97.9531 43.1724C97.5064 45.0582 96.2234 46.5518 94.5801 47.0989C92.3979 47.826 91.3098 47.2749 91.3098 45.4435C91.3098 44.1144 91.5308 43.8345 93.2777 42.9512C94.36 42.4041 95.9195 41.9561 96.7434 41.9561C98.1534 41.9561 98.2244 42.0273 97.9531 43.1724ZM120.376 50.4947C121.561 51.3642 121.105 53.0458 119.416 54.0321C117.68 55.0457 113.114 55.235 112.037 54.3381C111.644 54.0117 111.391 53.2603 111.465 52.6411C111.585 51.6331 111.926 51.4598 115.126 50.7733C119.636 49.8065 119.451 49.8167 120.376 50.4947Z" fill="white"/>
</svg>
